

<svg xmlns="http://www.w3.org/2000/svg" style="display:none">
  <!-- checkbox -->
  <symbol id="checkbox_icon" viewBox="0 0 16 16" fill="none">
    <path d="M3.5 7.47059L6.83333 11L12.5 5" stroke="white" stroke-width="1.5" stroke-linecap="round" stroke-linejoin="round" />
  </symbol>

  <!-- logo -->
  <symbol id="logo_icon" width="32" height="30" viewBox="0 0 32 30" fill="none">
<path   d="M13.7335 5.61519C14.0557 5.58158 14.388 5.61572 14.701 5.69392C15.6281 5.92561 16.2567 6.49481 16.7343 7.29074C17.114 7.25044 17.4978 7.27394 17.8696 7.36022C18.6632 7.55694 19.3475 8.0512 19.7769 8.73777C19.9888 9.07607 20.1295 9.45296 20.1906 9.84599C20.2516 10.239 20.2317 10.6401 20.1321 11.0254C19.8668 12.0281 19.2302 12.5502 18.3631 13.0503C18.3872 13.6659 18.3781 14.2845 18.3795 14.9006C18.3802 15.2898 18.4057 15.6959 18.3675 16.0822C18.3511 16.2461 18.3191 16.3803 18.2339 16.522C18.1094 16.611 17.982 16.638 17.8306 16.6563C17.4339 16.7039 17.0029 16.6717 16.6029 16.6708L14.2438 16.6624C13.4048 16.7244 12.5162 16.6658 11.672 16.6664C11.1101 16.6669 10.4775 16.7327 9.92259 16.6702C9.72461 16.6479 9.64013 16.5175 9.5318 16.3719C9.46181 15.2669 9.52125 14.1251 9.52172 13.016C9.05956 12.7799 8.66645 12.4901 8.34454 12.0827C8.10434 11.7788 7.92771 11.4309 7.82485 11.0593C7.722 10.6876 7.69498 10.2995 7.74534 9.91748C7.86585 9.10454 8.30632 8.37104 8.97144 7.87572C9.62928 7.38971 10.408 7.19163 11.2187 7.3029C11.3316 7.10719 11.4442 6.91069 11.5843 6.73227C12.1245 6.04427 12.8771 5.72287 13.7335 5.61519ZM13.7787 6.97239C13.2523 7.07566 12.7988 7.2638 12.4812 7.71929C12.3034 7.97426 12.141 8.70692 11.9194 8.8188C11.626 8.85338 11.319 8.71854 11.0347 8.6567C10.464 8.53252 9.81903 8.75897 9.46534 9.2175C9.17444 9.59461 9.03747 10.1146 9.11536 10.5827C9.18587 11.0061 9.44485 11.3612 9.79923 11.6038C10.1859 11.8686 10.617 11.9212 10.8841 12.3369C10.9333 13.2999 10.8976 14.2797 10.8991 15.2448C12.0231 15.2361 13.1471 15.2337 14.2711 15.2376L17.0167 15.2321C17.0164 14.7429 16.9108 12.31 17.1394 12.0711C17.2468 11.9591 17.4925 11.8907 17.6377 11.8344C18.2918 11.5801 18.7704 11.1393 18.8301 10.4138C18.8698 9.9347 18.7133 9.504 18.3912 9.14684C18.0978 8.82163 17.7149 8.64913 17.2741 8.62323C16.8871 8.60045 16.0904 8.96573 15.8472 8.69379C15.7289 8.56136 15.6816 8.33415 15.6212 8.16774C15.3737 7.48301 14.8561 7.0856 14.1281 6.99126C14.0113 6.97616 13.8962 6.96995 13.7787 6.97239Z" fill="white"/>
<path  d="M26.7019 1.3727C26.9454 1.35516 27.2377 1.35831 27.4299 1.53354C27.609 1.69668 27.6173 1.95847 27.5576 2.17642C27.4131 2.70447 26.9498 3.3368 26.671 3.81707C26.2247 4.58535 25.8083 5.37483 25.3752 6.15136C25.1073 6.63224 24.7829 7.1241 24.5685 7.62658C24.5005 7.78638 24.4488 7.95415 24.4564 8.12938C24.463 8.28158 24.5169 8.39611 24.6341 8.49601C24.8 8.63731 25.0192 8.74761 25.2445 8.71798C25.3944 8.69829 25.5146 8.61973 25.6074 8.50437C25.9251 8.10958 26.1133 7.55971 26.3455 7.11305L27.946 4.02408C28.1353 3.65476 28.302 3.20164 28.5677 2.88232C28.7082 2.71347 28.8389 2.63327 29.0631 2.6144C29.2404 2.59948 29.4129 2.64525 29.5498 2.76014C29.7117 2.89649 29.7874 3.11602 29.7554 3.32238C29.6939 3.71915 29.3405 4.20103 29.1519 4.56268L27.6989 7.41157C27.4397 7.92538 27.1358 8.45067 26.9268 8.98593C26.8784 9.1104 26.83 9.2498 26.8482 9.38492C26.8693 9.54329 26.9869 9.6824 27.115 9.77215C27.2584 9.87255 27.4535 9.93916 27.6297 9.90042C27.8325 9.85583 27.9744 9.70952 28.088 9.5467C28.3464 9.1768 28.5175 8.69097 28.7079 8.28158L29.9483 5.65258C30.182 5.15347 30.3949 4.56734 30.7065 4.11405C30.8186 3.95094 30.9391 3.82077 31.1455 3.78924C31.3544 3.75735 31.5659 3.84494 31.7235 3.97573C31.8549 4.08456 31.9528 4.2123 31.9587 4.38641C31.9739 4.8334 31.1535 6.38509 30.9304 6.88391L30.0513 8.84841C29.6196 9.81717 29.2513 10.7883 28.5237 11.5898C27.807 12.3792 26.9916 12.714 26.0078 13.0661C25.8003 13.1404 25.4822 13.2135 25.306 13.3393C24.958 13.5879 24.7156 14.0478 24.5114 14.4104C24.3549 14.6892 24.1547 14.9921 24.0564 15.2967C23.9119 15.7454 24.0076 17.118 24.0076 17.6596L24.0062 24.6557L24.0098 26.7947C24.0106 27.2136 24.036 27.6516 23.9894 28.0677C23.9723 28.2202 23.9119 28.3902 23.7987 28.4996C23.458 28.8303 22.2026 28.7134 21.7207 28.7109L18.4353 28.7066C18.6246 28.2044 18.8586 27.7108 19.1054 27.2334C19.5316 27.1892 19.9699 27.2083 20.3987 27.2079L22.5178 27.209L22.5182 18.0663C22.2437 18.7165 21.8943 19.3522 21.5784 19.9844C21.0164 21.104 20.4604 22.2264 19.9106 23.3518C19.2468 24.7207 18.5726 26.0847 17.8879 27.4436C17.6014 28.0114 17.347 28.6101 17.0216 29.1568C16.8894 29.3784 16.73 29.5786 16.5091 29.721C16.209 29.9125 15.8448 29.9809 15.4943 29.9115C15.3239 29.8763 15.1626 29.8069 15.0207 29.7075C14.8788 29.6081 14.7592 29.481 14.6695 29.334C14.4794 29.0283 14.431 28.6858 14.5344 28.3421C14.7033 27.7808 15.0589 27.2391 15.3396 26.7247L16.6754 24.2801C18.2933 21.318 19.9248 18.3572 21.4899 15.3679C21.859 14.6634 22.6944 13.328 22.8953 12.6642C23.1144 11.9418 22.6543 11.0769 22.5196 10.3663C22.3984 9.7272 22.4134 9.11188 22.5779 8.48152C22.647 8.21209 22.7447 7.95059 22.8694 7.70137C23.0831 7.28057 23.3408 6.87771 23.5789 6.46989L24.8128 4.33978L25.8087 2.61275C26.0052 2.27234 26.1919 1.90556 26.43 1.59205C26.5043 1.49419 26.5963 1.43425 26.7019 1.3727Z" fill="white"/>
<path  d="M4.30346 0.0927365C5.44581 0.0330835 6.61349 0.0841637 7.7589 0.085204L14.3234 0.0876068L20.2794 0.0846654C21.2454 0.0845578 22.2493 0.0294607 23.2121 0.0905843C23.409 0.103067 23.6329 0.157913 23.7817 0.293684C23.9124 0.412882 23.9685 0.622331 23.9936 0.789238C24.0445 1.12779 24.0143 1.49887 24.0136 1.84204L24.0052 3.78846C23.5284 4.55509 23.0064 5.29998 22.5056 6.05187C22.5496 5.54742 22.5191 5.02284 22.5191 4.51574L22.5187 1.66323C16.8077 1.66818 11.0894 1.72008 5.37891 1.65978C5.32122 3.99597 5.37407 6.34697 5.374 8.68449L5.37713 21.6059L13.0746 21.6027L15.458 21.5984C15.8992 21.5976 16.3687 21.5667 16.8059 21.6219C16.6435 22.1248 16.3348 22.6298 16.095 23.1033L8.16056 23.0865L5.77176 23.0854C5.22734 23.0865 4.66021 23.0606 4.12103 23.1396C3.65685 23.205 3.21955 23.3938 2.85616 23.6859C2.41191 24.0406 2.08847 24.5539 2.04213 25.1236C2.00133 25.625 2.20025 26.1093 2.52624 26.4877C2.83225 26.8428 3.30252 27.1115 3.76676 27.199C4.44513 27.3271 5.45331 27.2363 6.16757 27.2385L11.0221 27.2428C11.9248 27.2435 12.8442 27.2055 13.744 27.2711C13.5842 27.7382 13.4382 28.2436 13.3472 28.7279C12.5331 28.6558 11.6661 28.7146 10.8452 28.7146L5.98372 28.7135C5.13769 28.7157 4.17475 28.8125 3.34922 28.6357C2.7695 28.5116 2.22533 28.2102 1.77194 27.8379C1.04083 27.2381 0.580745 26.3123 0.506054 25.3822C0.464304 24.8621 0.494516 24.3226 0.496845 23.8007L0.497974 21.2676L0.497538 12.5081L0.495828 6.43403C0.495245 5.65277 0.422372 4.27892 0.528803 3.54149C0.628446 2.81016 0.942314 2.12333 1.43198 1.56509C2.15318 0.718511 3.18607 0.188902 4.30346 0.0927365ZM3.85124 1.72679C3.04704 2.05296 2.45683 2.46149 2.11435 3.27734C1.99616 3.55885 1.96464 3.90583 1.95437 4.20901C1.90407 5.69549 1.95052 7.20009 1.95154 8.68883L1.95274 17.2823L1.95335 21.0921C1.95372 21.5237 1.87273 22.1122 1.96839 22.5237L2.00275 22.5355L2.056 22.5011C2.66212 22.053 3.176 21.808 3.92069 21.6526C3.86249 19.5288 3.91345 17.3891 3.91574 15.2641C3.91832 12.8757 3.8765 10.4823 3.90369 8.09463C3.91936 6.53221 3.92267 4.9697 3.91363 3.40723C3.91341 3.03116 3.97551 2.0507 3.90242 1.74186L3.85124 1.72679Z" fill="white"/>
</symbol>

  <!-- exit logo -->
  <symbol id="exit_logo" viewBox="0 0 24 24" fill="none">
    <path d="M9.80769 4.875L7.06731 4.875C5.85653 4.875 4.875 5.85653 4.875 7.06731V16.9327C4.875 18.1435 5.85653 19.125 7.06731 19.125H9.80769M8.625 12L19.5865 12M19.5865 12L16.2981 15.2885M19.5865 12L16.2981 8.71154" stroke="white" stroke-linecap="round" stroke-linejoin="round"/>
  </symbol>

  <!-- add_recipe -->
  <symbol id="add_recipe" viewBox="0 0 25 24" fill="none">
    <path d="M12.4971 3.5C13.7607 3.50001 14.9206 3.62091 15.8398 3.76074C17.0036 3.93777 17.916 4.7353 18.1758 5.84961C18.4894 7.19485 18.7969 9.24141 18.7441 11.9902C18.6859 15.0233 18.2432 17.2117 17.8164 18.6396C17.701 19.0256 17.4339 19.2243 17.1318 19.2754C16.816 19.3287 16.4263 19.2236 16.1094 18.9082C15.5326 18.334 14.8719 17.7138 14.2627 17.2344C13.9586 16.9951 13.6558 16.7817 13.375 16.626C13.1101 16.4791 12.7995 16.3457 12.4971 16.3457C12.1993 16.3457 11.8783 16.4769 11.5977 16.6211C11.2986 16.7747 10.9675 16.9855 10.6289 17.2246C9.95038 17.7037 9.19895 18.3244 8.53711 18.8994C8.18779 19.2029 7.77644 19.2747 7.45215 19.1865C7.13917 19.1013 6.87522 18.8609 6.79395 18.4424C6.51488 17.0044 6.25 14.8805 6.25 12C6.25 9.12652 6.54615 7.09969 6.84082 5.79492C7.08505 4.71356 7.9671 3.94375 9.10156 3.76855C10.0289 3.62535 11.2091 3.5 12.4971 3.5Z" stroke="black" stroke-linecap="round" stroke-linejoin="round"/>
  </symbol>

  <!-- clock icon -->
  <symbol id="clock_icon" viewBox="0 0 24 24" fill="none">
    <path d="M12 7.61537V12.5481L15.2885 15.2884M19.125 12C19.125 15.935 15.935 19.125 12 19.125C8.06497 19.125 4.875 15.935 4.875 12C4.875 8.06497 8.06497 4.875 12 4.875C15.935 4.875 19.125 8.06497 19.125 12Z" stroke="black" stroke-width="0.5" stroke-linecap="round" stroke-linejoin="round"/>
  </symbol>

  <!-- arrow down -->
  <symbol id="arrow_down_icon" viewBox="0 0 17 17" fill="none">
    <path d="M13 6.25L8.5 10.75L4 6.25" stroke="black" stroke-linecap="round" stroke-linejoin="round"/>
  </symbol>

  <!-- add photo -->
  <symbol id="add_photo_icon" viewBox="0 0 163 136" fill="none">
    <path d="M99.9741 74.2115C99.9741 82.7879 91.703 89.7404 81.5001 89.7404C71.2972 89.7404 63.0261 82.7879 63.0261 74.2115C63.0261 65.6352 71.2972 58.6827 81.5001 58.6827C91.703 58.6827 99.9741 65.6352 99.9741 74.2115Z" stroke="#070707"/>
    <path d="M33.4678 95.625V57.7764C33.4678 51.4158 39.6019 46.2596 47.1688 46.2596C52.3584 46.2596 57.1026 43.7949 59.4234 39.8932L62.5286 34.673C65.0979 30.3535 70.3501 27.625 76.0954 27.625H86.9049C92.6502 27.6251 97.9023 30.3536 100.472 34.6731L103.577 39.8933C105.898 43.7951 110.642 46.2597 115.831 46.2597C123.398 46.2597 129.532 51.4159 129.532 57.7765V95.625C129.532 102.667 122.741 108.375 114.364 108.375H48.6359C40.2588 108.375 33.4678 102.667 33.4678 95.625Z" stroke="#070707"/>
  </symbol>

  <!-- dump -->
  <symbol id="dump_icon" viewBox="0 0 24 24" fill="none">
    <path d="M12 16.3846V9.80769M4.875 7.06731H6.51923M19.125 7.06731H17.4808M14.7404 7.06731H9.25962M14.7404 7.06731V5.97115C14.7404 5.36576 14.2496 4.875 13.6442 4.875H10.3558C9.75038 4.875 9.25962 5.36576 9.25962 5.97115V7.06731M14.7404 7.06731H17.4808M9.25962 7.06731H6.51923M17.4808 7.06731V16.9327C17.4808 18.1435 16.4992 19.125 15.2885 19.125H8.71154C7.50076 19.125 6.51923 18.1435 6.51923 16.9327V7.06731" stroke="black" stroke-linecap="round" stroke-linejoin="round"/>
  </symbol>

  <!-- burger menu -->
  <symbol id="burger_menu_icon" viewBox="0 0 33 33" fill="none">
    <path d="M8 9.83398H25M8 21.834H25M8 15.834H25" stroke="white" stroke-width="1.33333" stroke-linecap="round"/>
  </symbol>

  <!-- back arrow -->
  <symbol id="back_arrow_icon" viewBox="0 0 25 24" fill="none">
    <path d="M17 12.0023L7.99996 12.0023M7.99996 12.0023L12.0377 16.0414M7.99996 12.0023L12.0377 7.96306" stroke="white" stroke-linecap="round" stroke-linejoin="round"/>
  </symbol>

  <!-- dagger -->
  <symbol id="dagger_icon" viewBox="0 0 24 24" fill="none">
    <path d="M5.25 5.25L12 12M12 12L5.25 18.75M12 12L18.75 18.75M12 12L18.75 5.25" stroke="black" stroke-linecap="round" stroke-linejoin="round"/>
  </symbol>
  
<!-- Close button -->
<symbol id="close_icon" viewBox="0 0 24 24" fill="none" >
<path d="M5.25 5.25L12 12M12 12L5.25 18.75M12 12L18.75 18.75M12 12L18.75 5.25" stroke="currentColor" stroke-linecap="round" stroke-linejoin="round"/>
</symbol>

<!-- Delete button -->
<symbol id="delete_icon" width="24" height="24" viewBox="0 0 24 24" fill="none">
<path d="M12 16.3846L12 9.80769M4.875 7.06731H6.51923M19.125 7.06731H17.4808M14.7404 7.06731H9.25962M14.7404 7.06731V5.97115C14.7404 5.36576 14.2496 4.875 13.6442 4.875H10.3558C9.75038 4.875 9.25962 5.36576 9.25962 5.97115V7.06731M14.7404 7.06731H17.4808M9.25962 7.06731H6.51923M17.4808 7.06731V16.9327C17.4808 18.1435 16.4992 19.125 15.2885 19.125H8.71154C7.50076 19.125 6.51923 18.1435 6.51923 16.9327V7.06731" stroke="currentColor" stroke-linecap="round" stroke-linejoin="round"/>
</symbol>

<!-- Photo icon -->

<symbol id="photo_icon" width="96" height="82" viewBox="0 0 99 82" fill="none"><path
d="M67.9741 47.2115C67.9741 55.7879 59.703 62.7404 49.5001 62.7404C39.2972 62.7404 31.0261 55.7879 31.0261 47.2115C31.0261 38.6352 39.2972 31.6827 49.5001 31.6827C59.703 31.6827 67.9741 38.6352 67.9741 47.2115Z"
stroke="currentColor"/><path
d="M1.46777 68.625L1.46778 30.7764C1.46778 24.4158 7.60195 19.2596 15.1688 19.2596C20.3584 19.2596 25.1026 16.7949 27.4234 12.8932L30.5286 7.67302C33.0979 3.35351 38.3501 0.624982 44.0954 0.625L54.9049 0.625035C60.6502 0.625053 65.9023 3.35359 68.4716 7.67307L71.5768 12.8933C73.8976 16.7951 78.6418 19.2597 83.8314 19.2597C91.3983 19.2597 97.5324 24.4159 97.5324 30.7765V68.625C97.5324 75.6666 90.7414 81.375 82.3643 81.375H16.6359C8.25876 81.375 1.46777 75.6666 1.46777 68.625Z" stroke="currentColor"/>

</symbol>

</svg>


